<svg width="24" height="24" viewBox="0 0 24 24" fill="none" xmlns="http://www.w3.org/2000/svg">
<path d="M5 20H4C3.44772 20 3 19.5523 3 19V8C3 7.44772 3.44772 7 4 7H20C20.5523 7 21 7.44772 21 8V19C21 19.5523 20.5523 20 20 20H19" stroke="#00DCFF" stroke-width="2" stroke-linecap="round"/>
<line x1="12" y1="12" x2="12" y2="20" stroke="#00DCFF" stroke-width="2" stroke-linecap="round"/>
<path d="M16.7071 18.7071C17.0976 18.3166 17.0976 17.6834 16.7071 17.2929C16.3166 16.9024 15.6834 16.9024 15.2929 17.2929L16.7071 18.7071ZM12 22L11.2929 22.7071C11.6834 23.0976 12.3166 23.0976 12.7071 22.7071L12 22ZM8.70711 17.2929C8.31658 16.9024 7.68342 16.9024 7.29289 17.2929C6.90237 17.6834 6.90237 18.3166 7.29289 18.7071L8.70711 17.2929ZM15.2929 17.2929L11.2929 21.2929L12.7071 22.7071L16.7071 18.7071L15.2929 17.2929ZM12.7071 21.2929L8.70711 17.2929L7.29289 18.7071L11.2929 22.7071L12.7071 21.2929Z" fill="#00DCFF"/>
<path d="M3 8.67997V7.33142C3 6.37275 3.68026 5.54891 4.62163 5.36754L16.8108 3.01909C17.4276 2.90025 18 3.37287 18 4.00104V6.99998" stroke="#00DCFF" stroke-width="2"/>
</svg>
